<svg width="467" height="477" viewBox="0 0 467 477" fill="none" xmlns="http://www.w3.org/2000/svg">
<path d="M21.6397 98.1246H179.838C179.838 98.1246 180.702 87.316 152.605 88.18C152.605 88.18 156.061 74.7793 118.028 76.0754C118.028 76.0754 115.004 58.3462 92.9545 59.6422C92.9545 59.6422 67.0172 59.5744 62.6972 81.2679C62.6972 81.2679 37.2004 79.0994 35.8959 90.7805C35.8959 90.7805 22.0717 90.34 21.6397 98.1246Z" fill="#B0E4DB"/>
<path d="M136.943 142.875H137.781V139.038H114.91V142.875H115.749V147.865H111.641V145.535H112.581V141.427H103.145V145.535H104.178V147.865H100.205V248.539H150.902V147.865H136.943V142.875Z" fill="#55B2AF"/>
<path d="M284.003 198.155H284.028V196.495H284.714V193.403H284.003V175.013H284.697V171.921H284.003V152.93H284.697V150.067H278.386V145.798H278.912V144.84H268.908V145.798H269.585V150.067H265.63V137.005H268.23V136.209H261.674V137.005H264.952V150.067H261.674V146.331H260.988V145.255H261.902V144.408H245.461V145.255H246.816V146.331H246.418V150.067H237.227V152.93H237.956V171.921H237.227V175.013H237.956V193.403H237.244V196.495H237.956V216.24H237.27V219.332H237.956V251.368H284.003V220.992H284.045V219.332H284.739V216.24H284.003V198.155Z" fill="#55B2AF"/>
<path d="M404.278 171.93H400.339V164.857H392.749V162.688H393.656V158.682H384.465V162.688H385.465V164.857H373.394V160.816H374.182V156.996H351.844V160.816H352.624V164.857H349.93V171.93H319.562V248.589H432.621V171.93H404.278Z" fill="#55B2AF"/>
<mask id="mask0_33_312" style="mask-type:luminance" maskUnits="userSpaceOnUse" x="12" y="244" width="444" height="79">
<path d="M12 244.422H456V322.022H12V244.422Z" fill="white"/>
</mask>
<g mask="url(#mask0_33_312)">
<path d="M447.013 304.166H416.238C421.168 304.166 425.167 300.168 425.167 295.238C425.167 290.308 421.168 286.31 416.238 286.31H447.013C451.951 286.31 455.941 282.311 455.941 277.373C455.941 272.443 451.951 268.445 447.013 268.445H436.356C441.922 268.445 446.428 263.938 446.428 258.373V256.12C446.428 250.555 441.922 246.048 436.356 246.048H37.8949C32.3296 246.048 27.8148 250.555 27.8148 256.12V258.373C27.8148 263.938 32.3296 268.445 37.8949 268.445H51.8546C46.9247 268.445 42.9265 272.443 42.9265 277.373C42.9265 282.311 46.9247 286.31 51.8546 286.31H21.0721C16.1422 286.31 12.144 290.308 12.144 295.238C12.144 300.168 16.1422 304.166 21.0721 304.166H51.8546C46.9247 304.166 42.9265 308.164 42.9265 313.094C42.9265 318.024 46.9247 322.022 51.8546 322.022H447.013C451.951 322.022 455.941 318.024 455.941 313.094C455.941 308.164 451.951 304.166 447.013 304.166Z" fill="#57C146"/>
</g>
<mask id="mask1_33_312" style="mask-type:luminance" maskUnits="userSpaceOnUse" x="12" y="281" width="444" height="42">
<path d="M12 281.286H456V322.022H12V281.286Z" fill="white"/>
</mask>
<g mask="url(#mask1_33_312)">
<path d="M447.013 304.166H416.238C418.907 304.166 421.296 302.988 422.93 301.133H66.3988C61.4773 301.133 57.4791 297.135 57.4791 292.197C57.4791 287.267 61.4773 283.269 66.3988 283.269H45.1628C46.7976 285.132 49.1863 286.31 51.8546 286.31H21.0721C16.1422 286.31 12.144 290.308 12.144 295.238C12.144 300.168 16.1422 304.166 21.0721 304.166H51.8546C46.9247 304.166 42.9265 308.164 42.9265 313.094C42.9265 318.024 46.9247 322.022 51.8546 322.022H447.013C451.951 322.022 455.941 318.024 455.941 313.094C455.941 308.164 451.951 304.166 447.013 304.166Z" fill="#4EAE48"/>
</g>
<path d="M357.105 141.02C357.105 141.02 336.428 146.17 331.396 205.821C329.711 225.668 380.382 228.87 385.134 209.209C390.293 187.888 369.506 139.741 357.105 141.02Z" fill="#57C146"/>
<path d="M358.341 147.221C367.092 146.323 380.001 169.998 385.05 191.514C381.322 168.643 366.702 140.029 357.105 141.02C357.105 141.02 336.428 146.17 331.396 205.821C331.201 208.032 331.676 210.039 332.65 211.827C337.715 152.362 358.341 147.221 358.341 147.221Z" fill="#69C644"/>
<path d="M335.072 214.944C346.601 226.075 381.246 225.295 385.134 209.209C386.769 202.458 385.803 193.022 383.322 183.314C379.027 209.591 348.761 214.207 335.072 214.944Z" fill="#4EAE48"/>
<path d="M385.592 195.47C379.366 213.199 359.705 218.9 346.034 220.687C360.908 224.905 382.136 221.593 385.134 209.209C386.066 205.355 386.151 200.628 385.592 195.47Z" fill="#45A64A"/>
<path d="M354.386 219.687C354.386 219.687 357.537 241.389 347.304 251.359H369.167C369.167 251.359 361.831 244.278 362.916 219.764C362.916 219.764 361.408 220.941 359.214 217.485C359.214 217.485 357.867 219.933 354.386 219.687Z" fill="#5B2E21"/>
<path d="M362.915 219.764C362.915 219.764 361.408 220.941 359.214 217.485C359.214 217.485 358.934 217.993 358.307 218.519C357.867 225.829 357.638 240.974 362.077 251.359H369.167C369.167 251.359 361.831 244.278 362.915 219.764Z" fill="#48231B"/>
<path d="M409.911 221.763C409.911 221.763 407.886 247.666 405.786 251.614H415.866C415.866 251.614 413.774 238.696 413.172 221.534L409.911 221.763Z" fill="#5B2E21"/>
<path d="M409.97 251.614H415.866C415.866 251.614 413.774 238.696 413.172 221.534L411.673 221.644C411.385 228.641 410.648 245.413 409.97 251.614Z" fill="#48231B"/>
<path d="M398.908 177.859C398.908 177.859 396.62 170.253 405.693 173.37C405.693 173.37 406.336 169.88 410.182 172.633C410.182 172.633 415.222 167.593 419.347 174.369C419.347 174.369 423.388 170.278 422.566 174.945C422.566 174.945 428.521 170.43 429.156 177.309C429.156 177.309 434.383 176.487 431.181 180.426C431.181 180.426 437.407 181.434 432.833 185.466C432.833 185.466 438.144 189.049 435.027 192.073C435.027 192.073 438.237 192.81 435.306 194.275C435.306 194.275 437.873 196.935 434.019 198.587C434.019 198.587 436.949 201.433 433.747 203.077C433.747 203.077 439.431 206.931 434.019 210.971C434.019 210.971 436.678 214.631 431.359 215.647C431.359 215.647 432.096 221.145 425.768 219.408C425.768 219.408 426.319 227.565 418.983 221.424C418.983 221.424 418.161 225.642 414.214 222.246C414.214 222.246 412.749 226.371 409.911 222.703C409.911 222.703 405.693 228.667 401.932 221.975C401.932 221.975 398.086 226.278 396.527 220.408C396.527 220.408 391.758 224.169 393.596 217.934C393.596 217.934 387.082 218.307 391.386 212.157C391.386 212.157 383.508 212.157 389.463 206.744C389.463 206.744 385.244 204.085 390.479 198.773C390.479 198.773 386.718 193.903 392.029 190.15C392.029 190.15 389.92 186.296 392.859 184.094C392.859 184.094 390.928 180.883 395.333 179.782C395.333 179.782 394.689 176.58 398.908 177.859Z" fill="#57C146"/>
<path d="M394.41 220.145C394.41 220.145 393.884 220.467 393.215 220.746C393.41 221.695 394.198 221.644 394.952 221.339C394.757 221.009 394.571 220.619 394.41 220.145Z" fill="#69C644"/>
<path d="M400.559 221.517C400.559 221.517 399.212 222.695 397.705 222.847C398.958 224.16 400.542 223.186 401.372 222.5C401.101 222.212 400.83 221.89 400.559 221.517Z" fill="#69C644"/>
<path d="M392.487 184.407C392.665 184.365 392.851 184.322 393.054 184.28C393.054 184.28 392.326 181.451 397.12 182.586C397.12 182.586 394.511 175.86 404.837 178.613C404.837 178.613 405.565 175.538 409.945 177.969C409.945 177.969 415.688 173.514 420.381 179.503C420.381 179.503 424.963 175.894 424.032 180.002C424.032 180.002 430.808 176.03 431.537 182.095C431.537 182.095 433.409 181.866 434.4 182.281C433.832 180.858 431.181 180.426 431.181 180.426C434.383 176.487 429.156 177.309 429.156 177.309C428.521 170.43 422.566 174.945 422.566 174.945C423.388 170.278 419.347 174.369 419.347 174.369C415.222 167.593 410.182 172.633 410.182 172.633C406.336 169.88 405.692 173.37 405.692 173.37C396.62 170.253 398.907 177.859 398.907 177.859C394.689 176.58 395.333 179.782 395.333 179.782C390.928 180.883 392.859 184.094 392.859 184.094C392.724 184.195 392.597 184.305 392.487 184.407Z" fill="#69C644"/>
<path d="M409.64 222.169C409.64 222.169 406.718 225.363 403.406 223.974C406.709 227.226 409.911 222.703 409.911 222.703C412.486 226.024 413.926 222.957 414.18 222.347C413.528 223.22 412.003 224.533 409.64 222.169Z" fill="#69C644"/>
<path d="M418.983 221.424C426.319 227.565 425.768 219.408 425.768 219.408C432.096 221.145 431.359 215.647 431.359 215.647C436.678 214.631 434.019 210.971 434.019 210.971C439.431 206.931 433.747 203.077 433.747 203.077C436.949 201.433 434.019 198.587 434.019 198.587C437.873 196.935 435.306 194.276 435.306 194.276C438.237 192.81 435.027 192.073 435.027 192.073C435.704 191.421 435.984 190.743 436.009 190.083C434.756 192.022 433.197 192.827 433.197 192.827C434.662 198.418 431.181 198.418 431.181 198.418C433.747 205.482 428.546 204.745 428.546 204.745C428.47 213.64 421.185 209.243 421.185 209.243C419.534 216.579 413.418 211.437 413.418 211.437C408.496 216.85 404.769 210.887 404.769 210.887C397.069 214.283 397.705 206.948 397.705 206.948C391.546 204.288 394.952 198.418 394.952 198.418C391.707 197.833 390.327 194.75 389.759 192.615C388.133 195.741 390.479 198.773 390.479 198.773C385.244 204.085 389.463 206.744 389.463 206.744C383.508 212.157 391.386 212.157 391.386 212.157C387.082 218.307 393.596 217.934 393.596 217.934C391.758 224.169 396.527 220.408 396.527 220.408C398.086 226.278 401.932 221.975 401.932 221.975C405.693 228.667 409.911 222.703 409.911 222.703C412.749 226.371 414.214 222.246 414.214 222.246C418.161 225.643 418.983 221.424 418.983 221.424Z" fill="#4EAE48"/>
<path d="M432.833 206.211C434.213 213.207 429.402 212.081 429.402 212.081C429.19 217.4 424.887 215.384 424.887 215.384C423.718 219.603 418.983 216.579 418.983 216.579C417.323 222.246 413.418 217.773 413.418 217.773C409.42 221.441 407.709 216.85 407.709 216.85C403.677 221.805 401.847 216.579 401.847 216.579C398.73 219.51 396.891 216.028 396.891 216.028C392.58 217.036 393.681 211.717 393.681 211.717C390.386 209.607 392.436 206.211 392.436 206.211C390.056 205.025 388.963 203.136 388.489 201.391C386.633 204.966 389.463 206.744 389.463 206.744C383.508 212.157 391.386 212.157 391.386 212.157C387.082 218.307 393.596 217.934 393.596 217.934C391.758 224.169 396.527 220.408 396.527 220.408C398.086 226.278 401.932 221.975 401.932 221.975C405.693 228.667 409.911 222.703 409.911 222.703C412.749 226.371 414.214 222.246 414.214 222.246C418.161 225.642 418.983 221.424 418.983 221.424C426.319 227.565 425.768 219.408 425.768 219.408C432.096 221.145 431.359 215.647 431.359 215.647C436.678 214.631 434.019 210.971 434.019 210.971C437.11 208.659 436.577 206.414 435.552 204.906C434.688 206.744 432.833 206.211 432.833 206.211Z" fill="#45A64A"/>
<path d="M54.3367 213.885C54.3367 213.885 52.0326 243.423 49.627 247.92H61.1302C61.1302 247.92 58.7414 233.19 58.0553 213.631L54.3367 213.885Z" fill="#5B2E21"/>
<path d="M54.4044 247.92H61.1302C61.1302 247.92 58.7414 233.19 58.0553 213.631L56.3442 213.75C56.0139 221.729 55.1753 240.856 54.4044 247.92Z" fill="#48231B"/>
<path d="M41.7916 163.832C41.7916 163.832 39.1742 155.158 49.5254 158.707C49.5254 158.707 50.2623 154.734 54.6501 157.877C54.6501 157.877 60.4017 152.125 65.103 159.859C65.103 159.859 69.7026 155.191 68.7623 160.503C68.7623 160.503 75.5558 155.361 76.2843 163.205C76.2843 163.205 82.2477 162.265 78.5798 166.762C78.5798 166.762 85.6952 167.914 80.4688 172.506C80.4688 172.506 86.5254 176.588 82.9761 180.044C82.9761 180.044 86.6355 180.875 83.2896 182.552C83.2896 182.552 86.2119 185.584 81.8241 187.465C81.8241 187.465 85.1701 190.701 81.5107 192.59C81.5107 192.59 87.9908 196.977 81.8241 201.585C81.8241 201.585 84.8566 205.762 78.7916 206.914C78.7916 206.914 79.6302 213.182 72.4132 211.2C72.4132 211.2 73.0485 220.501 64.6879 213.504C64.6879 213.504 63.7392 218.307 59.2497 214.444C59.2497 214.444 57.5725 219.145 54.3367 214.961C54.3367 214.961 49.5254 221.754 45.2392 214.122C45.2392 214.122 40.8514 219.044 39.0725 212.352C39.0725 212.352 33.6343 216.638 35.7266 209.523C35.7266 209.523 28.3063 209.946 33.2193 202.941C33.2193 202.941 24.2319 202.941 31.0254 196.774C31.0254 196.774 26.214 193.733 32.1774 187.677C32.1774 187.677 27.8912 182.128 33.9562 177.842C33.9562 177.842 31.5505 173.454 34.8965 170.947C34.8965 170.947 32.6941 167.279 37.7172 166.034C37.7172 166.034 36.9887 162.375 41.7916 163.832Z" fill="#57C146"/>
<path d="M36.6667 212.047C36.6667 212.047 36.0568 212.411 35.3029 212.725C35.5231 213.809 36.421 213.758 37.285 213.411C37.0563 213.03 36.8446 212.581 36.6667 212.047Z" fill="#69C644"/>
<path d="M83.7554 176.877C83.7554 176.877 83.857 176.927 84.0265 177.029L83.9587 176.733L83.7554 176.877Z" fill="#69C644"/>
<path d="M43.6805 213.614C43.6805 213.614 42.1388 214.952 40.4193 215.13C41.8508 216.621 43.6551 215.52 44.5953 214.732C44.2904 214.41 43.9854 214.038 43.6805 213.614Z" fill="#69C644"/>
<path d="M34.4644 171.294C34.6761 171.252 34.8879 171.201 35.1166 171.15C35.1166 171.15 34.2865 167.923 39.7501 169.219C39.7501 169.219 36.7854 161.561 48.5596 164.696C48.5596 164.696 49.3897 161.189 54.3875 163.959C54.3875 163.959 60.9184 158.885 66.2718 165.712C66.2718 165.712 71.5067 161.587 70.431 166.28C70.431 166.28 78.1647 161.739 78.9948 168.668C78.9948 168.668 81.121 168.406 82.2645 168.872C81.6123 167.254 78.5798 166.762 78.5798 166.762C82.2476 162.265 76.2842 163.205 76.2842 163.205C75.5557 155.361 68.7622 160.503 68.7622 160.503C69.7025 155.191 65.1029 159.859 65.1029 159.859C60.4017 152.125 54.6501 157.877 54.6501 157.877C50.2622 154.734 49.5253 158.707 49.5253 158.707C39.1741 155.158 41.7915 163.832 41.7915 163.832C36.9886 162.375 37.7171 166.034 37.7171 166.034C32.694 167.279 34.8964 170.947 34.8964 170.947C34.7354 171.057 34.5999 171.176 34.4644 171.294Z" fill="#69C644"/>
<path d="M59.6139 213.885C59.6139 213.885 59.4953 214.139 59.275 214.461C61.8332 216.655 63.2308 216.028 63.9593 215.088C63.0191 215.393 61.6299 215.241 59.6139 213.885Z" fill="#69C644"/>
<path d="M54.0231 214.351C54.0231 214.351 50.6941 218.002 46.9162 216.401C50.6857 220.111 54.3365 214.961 54.3365 214.961C57.2674 218.756 58.9192 215.249 59.1987 214.554C58.4618 215.554 56.7168 217.045 54.0231 214.351Z" fill="#69C644"/>
<path d="M74.5985 211.022C74.5985 211.022 74.6155 211.242 74.607 211.581C75.3948 211.623 76.0385 211.522 76.5637 211.327C75.9708 211.276 75.3185 211.183 74.5985 211.022Z" fill="#69C644"/>
<path d="M65.7975 213.055C65.7975 213.055 65.6789 213.529 65.3316 214.029C68.6945 216.647 70.4733 216.435 71.4051 215.359C70.1176 215.317 68.3218 214.698 65.7975 213.055Z" fill="#69C644"/>
<path d="M64.6879 213.504C73.0485 220.501 72.4132 211.2 72.4132 211.2C79.6302 213.182 78.7916 206.914 78.7916 206.914C84.8566 205.762 81.8241 201.586 81.8241 201.586C87.9908 196.978 81.5107 192.59 81.5107 192.59C85.1701 190.701 81.8241 187.465 81.8241 187.465C86.2119 185.585 83.2896 182.552 83.2896 182.552C86.6355 180.875 82.9761 180.045 82.9761 180.045C83.7385 179.299 84.0604 178.52 84.0858 177.766C82.6627 179.977 80.8839 180.892 80.8839 180.892C82.5526 187.279 78.5798 187.279 78.5798 187.279C81.5107 195.326 75.5812 194.487 75.5812 194.487C75.505 204.627 67.1868 199.612 67.1868 199.612C65.3063 207.973 58.3434 202.119 58.3434 202.119C52.7273 208.295 48.4835 201.493 48.4835 201.493C39.6994 205.364 40.4194 196.995 40.4194 196.995C33.4056 193.971 37.2852 187.279 37.2852 187.279C33.5835 186.601 32.0164 183.086 31.3642 180.663C29.5091 184.221 32.1774 187.677 32.1774 187.677C26.214 193.733 31.0254 196.774 31.0254 196.774C24.2319 202.941 33.2193 202.941 33.2193 202.941C28.3063 209.946 35.7266 209.523 35.7266 209.523C33.6343 216.638 39.0725 212.352 39.0725 212.352C40.8514 219.044 45.2392 214.122 45.2392 214.122C49.5254 221.754 54.3367 214.961 54.3367 214.961C57.5725 219.145 59.2497 214.444 59.2497 214.444C63.7392 218.307 64.6879 213.504 64.6879 213.504Z" fill="#4EAE48"/>
<path d="M80.4688 196.164C82.0444 204.135 76.5638 202.856 76.5638 202.856C76.3182 208.913 71.4052 206.617 71.4052 206.617C70.0837 211.429 64.6879 207.973 64.6879 207.973C62.7905 214.444 58.3434 209.336 58.3434 209.336C53.7692 213.521 51.8294 208.294 51.8294 208.294C47.2298 213.936 45.1375 207.973 45.1375 207.973C41.5799 211.318 39.4961 207.354 39.4961 207.354C34.5831 208.498 35.8367 202.433 35.8367 202.433C32.0757 200.027 34.4136 196.164 34.4136 196.164C31.703 194.809 30.4578 192.658 29.9157 190.658C27.798 194.733 31.0254 196.774 31.0254 196.774C24.2319 202.941 33.2193 202.941 33.2193 202.941C28.3063 209.946 35.7266 209.523 35.7266 209.523C33.6343 216.638 39.0725 212.352 39.0725 212.352C40.8514 219.044 45.2392 214.122 45.2392 214.122C49.5254 221.754 54.3367 214.961 54.3367 214.961C57.5725 219.145 59.2497 214.444 59.2497 214.444C63.7392 218.307 64.6879 213.504 64.6879 213.504C73.0485 220.501 72.4132 211.2 72.4132 211.2C79.6302 213.182 78.7916 206.914 78.7916 206.914C84.8566 205.762 81.8241 201.586 81.8241 201.586C85.3479 198.951 84.7381 196.385 83.5691 194.674C82.5865 196.774 80.4688 196.164 80.4688 196.164Z" fill="#45A64A"/>
<path d="M272.686 59.5745H430.893C430.893 59.5745 431.757 48.7659 403.66 49.6299C403.66 49.6299 407.124 36.2208 369.082 37.5253C369.082 37.5253 366.05 19.7961 344.009 21.0922C344.009 21.0922 318.072 21.0159 313.752 42.7094C313.752 42.7094 288.246 40.5493 286.95 52.222C286.95 52.222 273.118 51.79 272.686 59.5745Z" fill="#B0E4DB"/>
<mask id="mask2_33_312" style="mask-type:luminance" maskUnits="userSpaceOnUse" x="189" y="0" width="86" height="22">
<path d="M189.529 0H274.1V21.0666H189.529V0Z" fill="white"/>
</mask>
<g mask="url(#mask2_33_312)">
<path d="M190.401 21.0158H274.058C274.058 21.0158 274.524 15.3066 259.666 15.764C259.666 15.764 261.487 8.67401 241.378 9.36013C241.378 9.36013 239.777 -0.0169281 228.121 0.669198C228.121 0.669198 214.399 0.635314 212.12 12.1046C212.12 12.1046 198.635 10.9611 197.949 17.1362C197.949 17.1362 190.638 16.9075 190.401 21.0158Z" fill="#B0E4DB"/>
</g>
<path d="M71.4643 36.1869H155.121C155.121 36.1869 155.578 30.4692 140.721 30.9266C140.721 30.9266 142.55 23.8366 122.441 24.5227C122.441 24.5227 120.84 15.1457 109.184 15.8318C109.184 15.8318 95.4618 15.7979 93.1747 27.2672C93.1747 27.2672 79.6978 26.1237 79.0117 32.2988C79.0117 32.2988 71.693 32.0701 71.4643 36.1869Z" fill="#B0E4DB"/>
<path d="M75.2423 128.416V253.528H138.23V128.416H75.2423Z" fill="#A8DBDB"/>
<path d="M119.561 128.416V253.528H138.23V128.416H119.561Z" fill="#88C9C6"/>
<path d="M135.452 253.528H78.0206V137.818H135.452V253.528Z" fill="#4EC4CB"/>
<path d="M135.452 239.949H78.0206V234.096H135.452V239.949Z" fill="#3A9197"/>
<path d="M135.452 229.217H113.606V137.818H135.452V229.217Z" fill="#3F9EA8"/>
<path d="M124.66 137.818V229.217H135.452V137.818H124.66Z" fill="#3A9197"/>
<path d="M137.197 234.096H76.2842V229.217H137.197V234.096Z" fill="#CFEFF1"/>
<path d="M89.939 253.528H88.0246V232.698H89.939V253.528Z" fill="#CFEFF1"/>
<path d="M101.781 253.528H99.8667V232.698H101.781V253.528Z" fill="#CFEFF1"/>
<path d="M113.606 253.528H111.7V232.698H113.606V253.528Z" fill="#CFEFF1"/>
<path d="M125.448 253.528H123.534V232.698H125.448V253.528Z" fill="#CFEFF1"/>
<path d="M135.452 215.816H78.0206V214.766H135.452V215.816Z" fill="#CFEFF1"/>
<path d="M135.452 201.365H78.0206V200.315H135.452V201.365Z" fill="#CFEFF1"/>
<path d="M135.452 186.999H78.0206V185.898H135.452V186.999Z" fill="#CFEFF1"/>
<path d="M135.452 172.463H78.0206V171.421H135.452V172.463Z" fill="#CFEFF1"/>
<path d="M135.452 158.012H78.0206V156.97H135.452V158.012Z" fill="#CFEFF1"/>
<path d="M135.452 143.561H78.0206V142.52H135.452V143.561Z" fill="#CFEFF1"/>
<path d="M89.4476 128.416H80.1638V122.622H89.4476V128.416Z" fill="#537A7E"/>
<path d="M90.6081 125.519H78.8932V120.411H90.6081V125.519Z" fill="#6A9095"/>
<path d="M120.891 128.416H94.5555V118.844H120.891V128.416Z" fill="#85C0BF"/>
<path d="M121.933 122.207H93.5136V117.455H121.933V122.207Z" fill="#5C9296"/>
<path d="M296.2 202.162H341.163V220.187H296.2V202.162Z" fill="#852E29"/>
<path d="M339.325 251.19H320.503V221.111H339.325V251.19Z" fill="#C9A870"/>
<path d="M326.754 251.182H322.078V222.305H326.754V251.182Z" fill="#AC8448"/>
<path d="M339.325 225.007H322.078V222.305H339.325V225.007Z" fill="#AC8448"/>
<path d="M322.078 251.19H271.635V216.74L296.853 204.805L322.078 216.74V251.19Z" fill="#D9BF93"/>
<path d="M322.078 222.712V216.74L296.853 204.805L271.635 216.74V222.712L296.853 211.92L322.078 222.712Z" fill="#B99A62"/>
<path d="M245.656 251.19H276.311V225.702H245.656V251.19Z" fill="#EDEFAD"/>
<path d="M296.853 199.172L266.553 213.64V219.273L296.853 204.805L327.161 219.273V213.64L296.853 199.172Z" fill="#A5433A"/>
<path d="M248.705 251.19H273.262V230.521H248.705V251.19Z" fill="#B6C4D4"/>
<path d="M250.06 251.19H271.898V232.817H250.06V251.19Z" fill="#88A3B5"/>
<path d="M250.06 234.545H271.898V232.817H250.06V234.545Z" fill="#7691A4"/>
<path d="M271.898 234.079H250.06V233.469H271.898V234.079Z" fill="#5D8099"/>
<path d="M271.898 235.485H250.06V234.875H271.898V235.485Z" fill="#5D8099"/>
<path d="M271.898 236.9H250.06V236.281H271.898V236.9Z" fill="#5D8099"/>
<path d="M271.898 238.298H250.06V237.696H271.898V238.298Z" fill="#5D8099"/>
<path d="M271.898 239.712H250.06V239.094H271.898V239.712Z" fill="#5D8099"/>
<path d="M271.898 241.118H250.06V240.509H271.898V241.118Z" fill="#5D8099"/>
<path d="M271.898 242.525H250.06V241.906H271.898V242.525Z" fill="#5D8099"/>
<path d="M271.898 243.931H250.06V243.321H271.898V243.931Z" fill="#5D8099"/>
<path d="M271.898 245.337H250.06V244.719H271.898V245.337Z" fill="#5D8099"/>
<path d="M271.898 246.743H250.06V246.133H271.898V246.743Z" fill="#5D8099"/>
<path d="M271.898 248.149H250.06V247.539H271.898V248.149Z" fill="#5D8099"/>
<path d="M271.898 249.555H250.06V248.945H271.898V249.555Z" fill="#5D8099"/>
<path d="M271.898 250.961H250.06V250.352H271.898V250.961Z" fill="#5D8099"/>
<path d="M274.583 251.19H273.262V231.208H274.583V251.19Z" fill="#C6C77E"/>
<path d="M296.2 233.69H280.208V223.051H296.2V233.69Z" fill="#B99A62"/>
<path d="M295.794 232.944H279.801V222.305H295.794V232.944Z" fill="#8B3133"/>
<path d="M294.396 232.012H281.199V223.228H294.396V232.012Z" fill="#50A6C3"/>
<path d="M288.204 232.944H287.543V222.568H288.204V232.944Z" fill="#8B3133"/>
<path d="M295.794 227.43V228.082H279.801V227.43H295.794Z" fill="#8B3133"/>
<path d="M316.852 233.774H300.859V223.135H316.852V233.774Z" fill="#B99A62"/>
<path d="M316.462 233.029H300.461V222.39H316.462V233.029Z" fill="#8B3133"/>
<path d="M315.056 232.106H301.859V223.322H315.056V232.106Z" fill="#50A6C3"/>
<path d="M308.856 233.029H308.212V222.661H308.856V233.029Z" fill="#8B3133"/>
<path d="M316.462 227.514V228.175H300.461V227.514H316.462Z" fill="#8B3133"/>
<path d="M341.163 222.305H322.078V220.187H341.163V222.305Z" fill="white"/>
<path d="M334.801 251.182H325.026V234.875H334.801V251.182Z" fill="#99554E"/>
<path d="M333.895 251.182H325.924V235.875H333.895V251.182Z" fill="#844141"/>
<path d="M333.895 236.891V235.875H325.924V236.891H333.895Z" fill="#742E31"/>
<path d="M279.174 251.19H276.311V227.658H279.174V251.19Z" fill="#B99A62"/>
<path d="M161.237 94.4229H154.782V90.3909H161.237V94.4229Z" fill="#537A7E"/>
<path d="M162.042 92.4069H153.893V88.8577H162.042V92.4069Z" fill="#6A9095"/>
<path d="M187.682 94.423H167.861V87.2229H187.682V94.423Z" fill="#85C0BF"/>
<path d="M188.47 89.7555H167.073V86.1724H188.47V89.7555Z" fill="#5C9296"/>
<path d="M241.895 252.012H192.832V107.866H241.895V252.012Z" fill="#E5732B"/>
<path d="M207.419 252.012H201.337V107.866H207.419V252.012Z" fill="#B6532C"/>
<path d="M201.337 252.012H146.303V95.99H201.337V252.012Z" fill="#F1B624"/>
<path d="M189.512 236.112H159.517V228.218H189.512V236.112Z" fill="#E78F2C"/>
<path d="M146.303 145.798H201.337V143.29H146.303V145.798Z" fill="#E78F2C"/>
<path d="M146.303 185.11H201.337V182.611H146.303V185.11Z" fill="#E78F2C"/>
<path d="M146.303 224.236H201.337V221.729H146.303V224.236Z" fill="#E78F2C"/>
<path d="M202.243 221.729H145.397V217.053H202.243V221.729Z" fill="#F8D996"/>
<path d="M202.243 182.611H145.397V177.927H202.243V182.611Z" fill="#F8D996"/>
<path d="M202.243 143.29H145.397V138.615H202.243V143.29Z" fill="#F8D996"/>
<path d="M202.243 99.1071H145.397V94.4229H202.243V99.1071Z" fill="#F8D996"/>
<path d="M197.466 138.615H149.7V103.969H197.466V138.615Z" fill="#4EC4CB"/>
<path d="M178.212 103.969V138.615H197.466V103.969H178.212Z" fill="#3F9EA8"/>
<path d="M188.207 103.969V138.615H197.466V103.969H188.207Z" fill="#3A9197"/>
<path d="M197.703 177.927H149.937V143.29H197.703V177.927Z" fill="#4EC4CB"/>
<path d="M178.449 143.29V177.927H197.703V143.29H178.449Z" fill="#3F9EA8"/>
<path d="M188.445 143.29V177.927H197.703V143.29H188.445Z" fill="#3A9197"/>
<path d="M197.703 217.053H149.937V182.408H197.703V217.053Z" fill="#4EC4CB"/>
<path d="M178.449 182.408V217.053H197.703V182.408H178.449Z" fill="#3F9EA8"/>
<path d="M188.445 182.408V217.053H197.703V182.408H188.445Z" fill="#3A9197"/>
<path d="M164.252 138.615H162.457V103.969H164.252V138.615Z" fill="#F1B624"/>
<path d="M184.701 138.615H182.905V103.969H184.701V138.615Z" fill="#F1B624"/>
<path d="M164.252 177.927H162.457V143.29H164.252V177.927Z" fill="#F1B624"/>
<path d="M184.701 177.927H182.905V143.29H184.701V177.927Z" fill="#F1B624"/>
<path d="M164.252 217.053H162.457V182.408H164.252V217.053Z" fill="#F1B624"/>
<path d="M184.701 217.053H182.905V182.408H184.701V217.053Z" fill="#F1B624"/>
<path d="M199.092 230.352H149.937V226.091H199.092V230.352Z" fill="#F8D996"/>
<path d="M161.516 253.528H157.518V230.352H161.516V253.528Z" fill="#F8D996"/>
<path d="M191.511 253.528H187.504V230.352H191.511V253.528Z" fill="#F8D996"/>
<path d="M237.016 241.94H209.105V119.352H237.016V241.94Z" fill="#4EC4CB"/>
<path d="M223.734 119.352V241.94H237.016V119.352H223.734Z" fill="#3F9EA8"/>
<path d="M231.196 119.352V241.94H237.016V119.352H231.196Z" fill="#3A9197"/>
<path d="M217.364 241.94H218.66V119.352H217.364V241.94Z" fill="#E5732B"/>
<path d="M228.613 241.94H229.9V119.352H228.613V241.94Z" fill="#E5732B"/>
<path d="M241.895 111.237H201.337V107.866H241.895V111.237Z" fill="#B6532C"/>
<path d="M146.303 101.606H201.337V99.1072H146.303V101.606Z" fill="#E78F2C"/>
<path d="M185.598 252.012H163.354V232.165H185.598V252.012Z" fill="white"/>
<path d="M184.557 252.012H164.396V234.029H184.557V252.012Z" fill="#4EC4CB"/>
<path d="M175.671 252.012H173.816V232.165H175.671V252.012Z" fill="white"/>
<path d="M91.4773 445.727H95.6591V462.091C95.6515 463.591 95.3333 464.883 94.7045 465.966C94.0758 467.042 93.197 467.871 92.0682 468.455C90.947 469.03 89.6402 469.318 88.1477 469.318C86.7841 469.318 85.5568 469.076 84.4659 468.591C83.3826 468.098 82.5227 467.371 81.8864 466.409C81.25 465.447 80.9318 464.25 80.9318 462.818H85.125C85.1326 463.447 85.2689 463.989 85.5341 464.443C85.8068 464.898 86.1818 465.246 86.6591 465.489C87.1364 465.731 87.6856 465.852 88.3068 465.852C88.9811 465.852 89.553 465.712 90.0227 465.432C90.4924 465.144 90.8485 464.72 91.0909 464.159C91.3409 463.598 91.4697 462.909 91.4773 462.091V445.727ZM121.028 457.364C121.028 459.871 120.559 462.019 119.619 463.807C118.688 465.587 117.415 466.951 115.801 467.898C114.195 468.845 112.373 469.318 110.335 469.318C108.297 469.318 106.472 468.845 104.858 467.898C103.252 466.943 101.979 465.576 101.04 463.795C100.108 462.008 99.642 459.864 99.642 457.364C99.642 454.856 100.108 452.712 101.04 450.932C101.979 449.144 103.252 447.777 104.858 446.83C106.472 445.883 108.297 445.409 110.335 445.409C112.373 445.409 114.195 445.883 115.801 446.83C117.415 447.777 118.688 449.144 119.619 450.932C120.559 452.712 121.028 454.856 121.028 457.364ZM116.79 457.364C116.79 455.598 116.513 454.11 115.96 452.898C115.415 451.678 114.657 450.758 113.688 450.136C112.718 449.508 111.6 449.193 110.335 449.193C109.07 449.193 107.953 449.508 106.983 450.136C106.013 450.758 105.252 451.678 104.699 452.898C104.153 454.11 103.881 455.598 103.881 457.364C103.881 459.129 104.153 460.621 104.699 461.841C105.252 463.053 106.013 463.973 106.983 464.602C107.953 465.223 109.07 465.534 110.335 465.534C111.6 465.534 112.718 465.223 113.688 464.602C114.657 463.973 115.415 463.053 115.96 461.841C116.513 460.621 116.79 459.129 116.79 457.364ZM140.605 453.159C140.416 452.545 140.154 451.996 139.821 451.511C139.495 451.019 139.101 450.598 138.639 450.25C138.185 449.902 137.662 449.64 137.071 449.466C136.48 449.284 135.836 449.193 135.139 449.193C133.889 449.193 132.776 449.508 131.798 450.136C130.821 450.765 130.052 451.689 129.491 452.909C128.938 454.121 128.662 455.598 128.662 457.341C128.662 459.098 128.938 460.587 129.491 461.807C130.045 463.027 130.813 463.955 131.798 464.591C132.783 465.22 133.927 465.534 135.23 465.534C136.412 465.534 137.435 465.307 138.298 464.852C139.17 464.398 139.84 463.754 140.31 462.92C140.779 462.08 141.014 461.095 141.014 459.966L141.969 460.114H135.651V456.818H145.094V459.614C145.094 461.606 144.67 463.33 143.821 464.784C142.973 466.239 141.806 467.36 140.321 468.148C138.836 468.928 137.132 469.318 135.207 469.318C133.063 469.318 131.181 468.837 129.56 467.875C127.946 466.905 126.685 465.53 125.776 463.75C124.874 461.962 124.423 459.841 124.423 457.386C124.423 455.508 124.688 453.83 125.219 452.352C125.757 450.875 126.507 449.621 127.469 448.591C128.431 447.553 129.56 446.765 130.855 446.227C132.151 445.682 133.56 445.409 135.082 445.409C136.37 445.409 137.571 445.598 138.685 445.977C139.798 446.348 140.787 446.879 141.651 447.568C142.522 448.258 143.238 449.076 143.798 450.023C144.359 450.97 144.726 452.015 144.901 453.159H140.605ZM169.966 457.364C169.966 459.871 169.496 462.019 168.557 463.807C167.625 465.587 166.352 466.951 164.739 467.898C163.133 468.845 161.311 469.318 159.273 469.318C157.235 469.318 155.409 468.845 153.795 467.898C152.189 466.943 150.917 465.576 149.977 463.795C149.045 462.008 148.58 459.864 148.58 457.364C148.58 454.856 149.045 452.712 149.977 450.932C150.917 449.144 152.189 447.777 153.795 446.83C155.409 445.883 157.235 445.409 159.273 445.409C161.311 445.409 163.133 445.883 164.739 446.83C166.352 447.777 167.625 449.144 168.557 450.932C169.496 452.712 169.966 454.856 169.966 457.364ZM165.727 457.364C165.727 455.598 165.451 454.11 164.898 452.898C164.352 451.678 163.595 450.758 162.625 450.136C161.655 449.508 160.538 449.193 159.273 449.193C158.008 449.193 156.89 449.508 155.92 450.136C154.951 450.758 154.189 451.678 153.636 452.898C153.091 454.11 152.818 455.598 152.818 457.364C152.818 459.129 153.091 460.621 153.636 461.841C154.189 463.053 154.951 463.973 155.92 464.602C156.89 465.223 158.008 465.534 159.273 465.534C160.538 465.534 161.655 465.223 162.625 464.602C163.595 463.973 164.352 463.053 164.898 461.841C165.451 460.621 165.727 459.129 165.727 457.364ZM189.776 469H181.889V445.727H189.935C192.245 445.727 194.23 446.193 195.889 447.125C197.556 448.049 198.836 449.379 199.73 451.114C200.624 452.848 201.071 454.924 201.071 457.341C201.071 459.765 200.62 461.848 199.719 463.591C198.825 465.333 197.533 466.67 195.844 467.602C194.162 468.534 192.139 469 189.776 469ZM186.105 465.352H189.571C191.192 465.352 192.545 465.057 193.628 464.466C194.711 463.867 195.526 462.977 196.071 461.795C196.616 460.606 196.889 459.121 196.889 457.341C196.889 455.561 196.616 454.083 196.071 452.909C195.526 451.727 194.719 450.845 193.651 450.261C192.59 449.67 191.272 449.375 189.696 449.375H186.105V465.352ZM206.815 469H202.315L210.509 445.727H215.713L223.918 469H219.418L213.202 450.5H213.02L206.815 469ZM206.963 459.875H219.236V463.261H206.963V459.875ZM234.92 445.727H240.08L246.989 462.591H247.261L254.17 445.727H259.33V469H255.284V453.011H255.068L248.636 468.932H245.614L239.182 452.977H238.966V469H234.92V445.727ZM263.92 469V445.727H279.057V449.261H268.136V455.58H278.273V459.114H268.136V465.466H279.148V469H263.92ZM283.358 445.727H288.517L295.426 462.591H295.699L302.608 445.727H307.767V469H303.722V453.011H303.506L297.074 468.932H294.051L287.619 452.977H287.403V469H283.358V445.727ZM333.153 457.364C333.153 459.871 332.684 462.019 331.744 463.807C330.813 465.587 329.54 466.951 327.926 467.898C326.32 468.845 324.498 469.318 322.46 469.318C320.422 469.318 318.597 468.845 316.983 467.898C315.377 466.943 314.104 465.576 313.165 463.795C312.233 462.008 311.767 459.864 311.767 457.364C311.767 454.856 312.233 452.712 313.165 450.932C314.104 449.144 315.377 447.777 316.983 446.83C318.597 445.883 320.422 445.409 322.46 445.409C324.498 445.409 326.32 445.883 327.926 446.83C329.54 447.777 330.813 449.144 331.744 450.932C332.684 452.712 333.153 454.856 333.153 457.364ZM328.915 457.364C328.915 455.598 328.638 454.11 328.085 452.898C327.54 451.678 326.782 450.758 325.812 450.136C324.843 449.508 323.725 449.193 322.46 449.193C321.195 449.193 320.078 449.508 319.108 450.136C318.138 450.758 317.377 451.678 316.824 452.898C316.278 454.11 316.006 455.598 316.006 457.364C316.006 459.129 316.278 460.621 316.824 461.841C317.377 463.053 318.138 463.973 319.108 464.602C320.078 465.223 321.195 465.534 322.46 465.534C323.725 465.534 324.843 465.223 325.812 464.602C326.782 463.973 327.54 463.053 328.085 461.841C328.638 460.621 328.915 459.129 328.915 457.364ZM320.881 443.432L323.426 438.239H327.449L323.96 443.432H320.881ZM337.139 469V445.727H345.866C347.654 445.727 349.154 446.038 350.366 446.659C351.586 447.28 352.507 448.152 353.128 449.273C353.757 450.386 354.071 451.686 354.071 453.17C354.071 454.663 353.753 455.958 353.116 457.057C352.488 458.148 351.56 458.992 350.332 459.591C349.105 460.182 347.598 460.477 345.81 460.477H339.594V456.977H345.241C346.287 456.977 347.143 456.833 347.81 456.545C348.476 456.25 348.969 455.822 349.287 455.261C349.613 454.693 349.776 453.996 349.776 453.17C349.776 452.345 349.613 451.64 349.287 451.057C348.961 450.466 348.465 450.019 347.798 449.716C347.132 449.405 346.272 449.25 345.219 449.25H341.355V469H337.139ZM349.162 458.455L354.923 469H350.219L344.56 458.455H349.162ZM362.168 445.727V469H357.952V445.727H362.168ZM369.722 469H365.222L373.415 445.727H378.619L386.824 469H382.324L376.108 450.5H375.926L369.722 469ZM369.869 459.875H382.142V463.261H369.869V459.875Z" fill="#65AB15"/>
<path d="M18.64 367.8V379.16H36.96V389.72H18.64V402.04H39.36V413H4.96V356.84H39.36V367.8H18.64ZM45.9212 384.84C45.9212 379.293 47.1213 374.36 49.5213 370.04C51.9213 365.667 55.2546 362.28 59.5213 359.88C63.8413 357.427 68.7213 356.2 74.1613 356.2C80.8279 356.2 86.5346 357.96 91.2813 361.48C96.0279 365 99.2013 369.8 100.801 375.88H85.7613C84.6413 373.533 83.0413 371.747 80.9613 370.52C78.9346 369.293 76.6146 368.68 74.0013 368.68C69.7879 368.68 66.3746 370.147 63.7613 373.08C61.1479 376.013 59.8413 379.933 59.8413 384.84C59.8413 389.747 61.1479 393.667 63.7613 396.6C66.3746 399.533 69.7879 401 74.0013 401C76.6146 401 78.9346 400.387 80.9613 399.16C83.0413 397.933 84.6413 396.147 85.7613 393.8H100.801C99.2013 399.88 96.0279 404.68 91.2813 408.2C86.5346 411.667 80.8279 413.4 74.1613 413.4C68.7213 413.4 63.8413 412.2 59.5213 409.8C55.2546 407.347 51.9213 403.96 49.5213 399.64C47.1213 395.32 45.9212 390.387 45.9212 384.84ZM135.739 413.56C130.459 413.56 125.605 412.333 121.179 409.88C116.805 407.427 113.312 404.013 110.699 399.64C108.139 395.213 106.859 390.253 106.859 384.76C106.859 379.267 108.139 374.333 110.699 369.96C113.312 365.587 116.805 362.173 121.179 359.72C125.605 357.267 130.459 356.04 135.739 356.04C141.019 356.04 145.845 357.267 150.219 359.72C154.645 362.173 158.112 365.587 160.619 369.96C163.179 374.333 164.459 379.267 164.459 384.76C164.459 390.253 163.179 395.213 160.619 399.64C158.059 404.013 154.592 407.427 150.219 409.88C145.845 412.333 141.019 413.56 135.739 413.56ZM135.739 401.08C140.219 401.08 143.792 399.587 146.459 396.6C149.179 393.613 150.539 389.667 150.539 384.76C150.539 379.8 149.179 375.853 146.459 372.92C143.792 369.933 140.219 368.44 135.739 368.44C131.205 368.44 127.579 369.907 124.859 372.84C122.192 375.773 120.859 379.747 120.859 384.76C120.859 389.72 122.192 393.693 124.859 396.68C127.579 399.613 131.205 401.08 135.739 401.08ZM235.669 356.84V413H221.989V379.32L209.429 413H198.389L185.749 379.24V413H172.069V356.84H188.229L203.989 395.72L219.589 356.84H235.669ZM280.467 403.08H259.507L256.147 413H241.827L262.147 356.84H277.987L298.307 413H283.827L280.467 403.08ZM276.947 392.52L269.987 371.96L263.107 392.52H276.947ZM344.891 356.84V367.8H330.011V413H316.331V367.8H301.451V356.84H344.891ZM349.437 384.84C349.437 379.293 350.637 374.36 353.037 370.04C355.437 365.667 358.77 362.28 363.037 359.88C367.357 357.427 372.237 356.2 377.677 356.2C384.344 356.2 390.05 357.96 394.797 361.48C399.544 365 402.717 369.8 404.317 375.88H389.277C388.157 373.533 386.557 371.747 384.477 370.52C382.45 369.293 380.13 368.68 377.517 368.68C373.304 368.68 369.89 370.147 367.277 373.08C364.664 376.013 363.357 379.933 363.357 384.84C363.357 389.747 364.664 393.667 367.277 396.6C369.89 399.533 373.304 401 377.517 401C380.13 401 382.45 400.387 384.477 399.16C386.557 397.933 388.157 396.147 389.277 393.8H404.317C402.717 399.88 399.544 404.68 394.797 408.2C390.05 411.667 384.344 413.4 377.677 413.4C372.237 413.4 367.357 412.2 363.037 409.8C358.77 407.347 355.437 403.96 353.037 399.64C350.637 395.32 349.437 390.387 349.437 384.84ZM461.334 356.84V413H447.654V389.88H426.374V413H412.694V356.84H426.374V378.84H447.654V356.84H461.334Z" fill="#1A6B17"/>
</svg>
